<svg id="SvgjsSvg1000" xmlns="http://www.w3.org/2000/svg" version="1.1" xmlns:xlink="http://www.w3.org/1999/xlink" xmlns:svgjs="http://svgjs.com/svgjs" width="634" height="593"><defs id="SvgjsDefs1001"></defs><path id="SvgjsPath1007" d="M814.285 486.543L456.85099999999994 223.301C446.96399999999994 215.98 433.8879999999999 215 423.04299999999995 220.79C412.19899999999996 226.471 405.39399999999995 237.94299999999998 405.39399999999995 250.51L405.42699999999996 413.41499999999996L286.87899999999996 413.41499999999996C276.23799999999994 413.41499999999996 267.611 423.063 267.611 434.96999999999997C267.611 446.87699999999995 276.238 456.53099999999995 286.879 456.53099999999995L405.43600000000004 456.53099999999995L405.442 490.99999999999994L213.26600000000002 490.99999999999994C202.62500000000003 490.99999999999994 194.00000000000003 500.64799999999997 194.00000000000003 512.554C194.00000000000003 524.461 202.62500000000003 534.116 213.26600000000002 534.116L405.45000000000005 534.116L405.458 569.707L286.879 569.707C276.238 569.707 267.611 579.362 267.611 591.269C267.611 603.175 276.238 612.823 286.879 612.823L405.467 612.823L405.5 776.559C405.5 789.126 412.305 800.4879999999999 423.15 806.285C427.827 808.7959999999999 432.931 810 438.034 810C444.731 810 451.324 807.925 456.95799999999997 803.768L814.392 541.076C822.8960000000001 534.844 828 524.679 828 513.976C827.788 502.941 822.791 492.776 814.285 486.543ZM472.237 714.031L472.237 612.823L536.6310000000001 612.823C547.272 612.823 555.8980000000001 603.175 555.8980000000001 591.269C555.8980000000001 579.362 547.2720000000002 569.707 536.6310000000001 569.707L472.0560000000001 569.707L471.8310000000001 534.116L599.7260000000001 534.116C610.3680000000002 534.116 618.9930000000002 524.461 618.9930000000002 512.554C618.9930000000002 500.64799999999997 610.3680000000002 491 599.7260000000001 491L471.56100000000015 491L471.34500000000014 456.531L536.6310000000001 456.531C547.272 456.531 555.8980000000001 446.877 555.8980000000001 434.97C555.8980000000001 423.06300000000005 547.2720000000002 413.415 536.6310000000001 413.415L471.0750000000001 413.415L470.4600000000001 315.31L739.547 513.425Z " fill="#ffffff" transform="matrix(1,0,0,1,-194,-217)"></path></svg>